<svg id="visual" viewBox="0 0 1400 54" width="1400" height="54" xmlns="http://www.w3.org/2000/svg" xmlns:xlink="http://www.w3.org/1999/xlink" version="1.1"><path d="M0 38L46.7 37.5C93.3 37 186.7 36 280 33.3C373.3 30.7 466.7 26.3 560 21.5C653.3 16.7 746.7 11.3 840 7.8C933.3 4.3 1026.7 2.7 1120 5.2C1213.3 7.7 1306.7 14.3 1353.3 17.7L1400 21L1400 55L1353.3 55C1306.7 55 1213.3 55 1120 55C1026.7 55 933.3 55 840 55C746.7 55 653.3 55 560 55C466.7 55 373.3 55 280 55C186.7 55 93.3 55 46.7 55L0 55Z" fill="#693668" stroke-linecap="round" stroke-linejoin="miter"></path></svg>